# xmcd
#
# Track frame offsets:
#	150
#	19552
#	36087
#	52695
#	72152
#
# Disc length: 1181 seconds
#
# Revision: 1
# Processed by: cddbd v1.5.1PL0 Copyright (c) Steve Scherf et al.
# Submitted via: CDex 1.50Beta5
#
DISCID=31049b05
DTITLE=池澤春菜 - 世紀末でも平気
DYEAR=1998
DGENRE=
TTITLE0=池澤春菜/世紀末でも平気
TTITLE1=おたっきぃ佐々木/たたかえアニゲマスター
TTITLE2=おたっきぃ佐々木/たたかえアニゲマスター
TTITLE3=世紀末でも平気
TTITLE4=たたかえアニゲマスター
EXTD=
EXTT0=
EXTT1=
EXTT2=
EXTT3=
EXTT4=
PLAYORDER=
